<?xml version="1.0" encoding="UTF-8"?>
<svg id="Logo_Verde" data-name="Logo Verde" xmlns="http://www.w3.org/2000/svg" viewBox="0 0 1080 1080">
  <defs>
    <style>
      .cls-1 {
        fill: #008c48;
      }

      .cls-1, .cls-2 {
        stroke-width: 0px;
      }

      .cls-2 {
        fill: #26d07c;
      }
    </style>
  </defs>
  <g id="Logo">
    <g id="HT">
      <g id="H">
        <path class="cls-1" d="m453,584.82c-21-18-45.28-29.69-70.53-35.23v174.13h126.22c5.03-50.8-13.99-103.15-55.68-138.9Zm-70.53-326.46v291.2c30.32,3.83,59.9,16.32,84.84,37.69,41.03,35.18,60.11,86.44,55.93,136.47h16.12v-465.36h-156.89Zm-301.83,0v465.36h156.89v-465.36H80.64Z"/>
      </g>
      <g id="T">
        <path class="cls-1" d="m579.9,258.36v121.66h136.3v343.7h156.89v-343.7h136.29v-121.66h-429.47Z"/>
      </g>
    </g>
    <g id="Ecosolutions">
      <path class="cls-1" d="m128.73,813.22h-39.31c1.1,8.34,7.95,13.89,17.55,13.89,5.67,0,10.42-1.88,13.99-5.74l4.85,5.56c-4.39,5.02-11.06,7.71-19.11,7.71-15.63,0-26.06-10.13-26.06-24.29s10.33-24.2,24.32-24.2,23.96,9.86,23.96,24.47c0,.72-.09,1.79-.18,2.6Zm-39.31-6.18h31.09c-.91-7.98-7.04-13.62-15.54-13.62s-14.63,5.56-15.54,13.62Z"/>
      <path class="cls-1" d="m168.32,810.35c0-14.16,10.7-24.2,25.6-24.2,8.69,0,15.91,3.5,19.75,10.13l-6.67,4.21c-3.11-4.66-7.86-6.81-13.17-6.81-9.51,0-16.64,6.54-16.64,16.67s7.13,16.76,16.64,16.76c5.3,0,10.06-2.15,13.17-6.81l6.67,4.12c-3.84,6.63-11.06,10.22-19.75,10.22-14.9,0-25.6-10.13-25.6-24.29Z"/>
      <path class="cls-1" d="m251.52,810.35c0-14.16,10.7-24.2,25.23-24.2s25.14,10.04,25.14,24.2-10.61,24.29-25.14,24.29-25.23-10.13-25.23-24.29Zm41.51,0c0-10.13-6.95-16.67-16.27-16.67s-16.37,6.54-16.37,16.67,7.04,16.76,16.37,16.76,16.27-6.63,16.27-16.76Z"/>
      <path class="cls-1" d="m339.66,829.09l3.66-6.81c4.11,2.87,10.7,4.93,17.01,4.93,8.14,0,11.52-2.42,11.52-6.45,0-10.67-30.63-1.43-30.63-20.35,0-8.51,7.77-14.25,20.21-14.25,6.31,0,13.44,1.61,17.65,4.3l-3.75,6.81c-4.39-2.78-9.23-3.76-13.99-3.76-7.68,0-11.43,2.78-11.43,6.54,0,11.2,30.72,2.06,30.72,20.53,0,8.6-8.05,14.07-20.94,14.07-8.05,0-16-2.42-20.02-5.56Z"/>
      <path class="cls-1" d="m418.83,810.35c0-14.16,10.7-24.2,25.23-24.2s25.14,10.04,25.14,24.2-10.61,24.29-25.14,24.29-25.23-10.13-25.23-24.29Zm41.51,0c0-10.13-6.95-16.67-16.27-16.67s-16.37,6.54-16.37,16.67,7.04,16.76,16.37,16.76,16.27-6.63,16.27-16.76Z"/>
      <path class="cls-1" d="m513.1,767.6h8.78v66.51h-8.78v-66.51Z"/>
      <path class="cls-1" d="m615.5,786.6v47.5h-8.32v-7.17c-3.57,4.93-9.6,7.71-16.46,7.71-12.53,0-20.85-6.72-20.85-20.71v-27.34h8.78v26.35c0,9.32,4.75,13.98,13.07,13.98,9.14,0,14.99-5.56,14.99-15.77v-24.56h8.78Z"/>
      <path class="cls-1" d="m691.2,831.33c-2.65,2.24-6.67,3.32-10.61,3.32-9.78,0-15.36-5.29-15.36-14.88v-26.08h-8.23v-7.08h8.23v-10.4h8.78v10.4h13.9v7.08h-13.9v25.72c0,5.11,2.74,7.98,7.59,7.98,2.56,0,5.03-.81,6.86-2.24l2.74,6.18Z"/>
      <path class="cls-1" d="m731.98,771.9c0-3.14,2.56-5.65,5.94-5.65s5.94,2.42,5.94,5.47c0,3.23-2.47,5.74-5.94,5.74s-5.94-2.42-5.94-5.56Zm1.55,14.7h8.78v47.5h-8.78v-47.5Z"/>
      <path class="cls-1" d="m786.28,810.35c0-14.16,10.7-24.2,25.23-24.2s25.14,10.04,25.14,24.2-10.61,24.29-25.14,24.29-25.23-10.13-25.23-24.29Zm41.51,0c0-10.13-6.95-16.67-16.27-16.67s-16.37,6.54-16.37,16.67,7.04,16.76,16.37,16.76,16.27-6.63,16.27-16.76Z"/>
      <path class="cls-1" d="m926.54,806.77v27.34h-8.78v-26.35c0-9.32-4.75-13.89-13.07-13.89-9.33,0-15.36,5.47-15.36,15.78v24.47h-8.78v-47.5h8.41v7.17c3.57-4.84,9.78-7.62,17.46-7.62,11.79,0,20.11,6.63,20.11,20.62Z"/>
      <path class="cls-1" d="m968.41,829.09l3.66-6.81c4.11,2.87,10.7,4.93,17.01,4.93,8.14,0,11.52-2.42,11.52-6.45,0-10.67-30.63-1.43-30.63-20.35,0-8.51,7.77-14.25,20.21-14.25,6.31,0,13.44,1.61,17.65,4.3l-3.75,6.81c-4.39-2.78-9.23-3.76-13.99-3.76-7.68,0-11.43,2.78-11.43,6.54,0,11.2,30.72,2.06,30.72,20.53,0,8.6-8.05,14.07-20.94,14.07-8.05,0-16-2.42-20.02-5.56Z"/>
    </g>
    <g id="Folha">
      <path class="cls-2" d="m379.95,549.59c-70.82,44.41-143.85-15.71-129.73-99.97,22.11,15.04,65.93,13.33,86.6,30.43,20.24,15.88,22.87,50.77,19.06,63.86-30.35,4.18-79.77-20.98-90.72-60.48,5.11,42.84,60.73,89.08,114.79,66.17Z"/>
    </g>
  </g>
</svg>